{
	"asset":{
		"generator":"Khronos glTF Blender I/O v4.3.47",
		"version":"2.0"
	},
	"scene":0,
	"scenes":[
		{
			"name":"Scene",
			"nodes":[
				0
			]
		}
	],
	"nodes":[
		{
			"mesh":0,
			"name":"rock.001"
		}
	],
	"materials":[
		{
			"doubleSided":true,
			"name":"rock",
			"pbrMetallicRoughness":{
				"baseColorFactor":[
					0.10167508572340012,
					0.08599257469177246,
					0.0700090155005455,
					1
				],
				"metallicFactor":0.14166666567325592
			}
		}
	],
	"meshes":[
		{
			"name":"rock.001",
			"primitives":[
				{
					"attributes":{
						"POSITION":0,
						"NORMAL":1
					},
					"indices":2,
					"material":0
				}
			]
		}
	],
	"accessors":[
		{
			"bufferView":0,
			"componentType":5126,
			"count":49229,
			"max":[
				0.2512446641921997,
				0.438880980014801,
				0.42704129219055176
			],
			"min":[
				-0.3956280052661896,
				-0.3133207857608795,
				-0.2943665087223053
			],
			"type":"VEC3"
		},
		{
			"bufferView":1,
			"componentType":5126,
			"count":49229,
			"type":"VEC3"
		},
		{
			"bufferView":2,
			"componentType":5123,
			"count":294912,
			"type":"SCALAR"
		}
	],
	"bufferViews":[
		{
			"buffer":0,
			"byteLength":590748,
			"byteOffset":0,
			"target":34962
		},
		{
			"buffer":0,
			"byteLength":590748,
			"byteOffset":590748,
			"target":34962
		},
		{
			"buffer":0,
			"byteLength":589824,
			"byteOffset":1181496,
			"target":34963
		}
	],
	"buffers":[
		{
			"byteLength":1771320,
			"uri":"fallingRocks.bin"
		}
	]
}
